<svg xmlns="http://www.w3.org/2000/svg" viewBox="0 0 64 64" width="512" height="512"><linearGradient gradientUnits="userSpaceOnUse" x1="32" y1="63" x2="32" y2="1"><stop offset="0" stop-color="#9F2FFF"/><stop offset="1" stop-color="#3363ff"/></linearGradient><path d="M11 53H9v-2h2V53zM15 51h-2v2h2V51zM19 51h-2v2h2V51zM23 51h-2v2h2V51zM27 51h-2v2h2V51zM31 51h-2v2h2V51zM11 47H9v2h2V47zM15 47h-2v2h2V47zM19 47h-2v2h2V47zM23 47h-2v2h2V47zM27 47h-2v2h2V47zM31 47h-2v2h2V47zM31 55h-2v2h2V55zM27 55H9v2h18V55zM7 51H5v2h2V51zM7 47H5v2h2V47zM7 55H5v2h2V55zM52 50h2v-2h-2V50zM52 46h2v-2h-2V46zM54 22v2c1.7 0 3 1.3 3 3v1.7c1.4 0.5 2.6 1.1 3.7 2C62.2 31.9 63 33.6 63 35.4v10.3c0 3-1.9 5.7-4.8 6.6L53 54.1l-5.2-1.7C44.9 51.4 43 48.7 43 45.7V35.4c0-1.8 0.8-3.5 2.3-4.7l0 0c1.1-0.9 2.4-1.6 3.7-2V27c0-1.7 1.3-3 3-3v-2c0-2.2 1.8-4 4-4h3c1.1 0 2-0.9 2-2s-0.9-2-2-2H37v2h1c1.7 0 3 1.3 3 3v15c0 1.7-1.3 3-3 3H20c-0.6 0-1 0.4-1 1v1h1c1.1 0 2 0.9 2 2v2h10c1.7 0 3 1.3 3 3v12c0 1.7-1.3 3-3 3h-4.8l-2.9 1.5C23.6 62.8 22.8 63 22.1 63h-8.1c-0.8 0-1.5-0.2-2.2-0.5L8.8 61H4c-1.7 0-3-1.3-3-3V46c0-1.7 1.3-3 3-3h10v-2c0-1.1 0.9-2 2-2h1v-1c0-1.7 1.3-3 3-3h18c0.6 0 1-0.4 1-1V19c0-0.6-0.4-1-1-1h-1v4c0 2.8-2.2 5-5 5h-7v4h4v2H9v-2h4v-4H6c-2.8 0-5-2.2-5-5V6c0-2.8 2.2-5 5-5h26c2.8 0 5 2.2 5 5v6h22c2.2 0 4 1.8 4 4s-1.8 4-4 4h-3C54.9 20 54 20.9 54 22zM32 45H4c-0.6 0-1 0.4-1 1v12c0 0.6 0.4 1 1 1h5.2l3.4 1.7C13 60.9 13.5 61 13.9 61h8.1c0.5 0 0.9-0.1 1.3-0.3L26.8 59H32c0.6 0 1-0.4 1-1V46C33 45.4 32.6 45 32 45zM20 41h-4v2h4V41zM3 6v13h7.2l4 2H35V6c0-1.7-1.3-3-3-3H6C4.3 3 3 4.3 3 6zM23 27h-8v4h8V27zM34.8 23H13.8l-4-2H3v1c0 1.7 1.3 3 3 3h26C33.3 25 34.4 24.2 34.8 23zM45 35.4V36h5.2c0.3-0.8 1-1.5 1.8-1.8v-4.1c-2 0.2-3.9 1-5.5 2.2C45.5 33 45 34.2 45 35.4zM53 36c-0.6 0-1 0.4-1 1v2c0 0.6 0.4 1 1 1s1-0.4 1-1v-2C54 36.4 53.6 36 53 36zM61 45.7V38h-5v1c0 1.7-1.3 3-3 3s-3-1.3-3-3v-1h-5v7.7c0 2.2 1.4 4.1 3.4 4.7L53 51.9l4.6-1.5C59.6 49.7 61 47.8 61 45.7zM59.5 32.3C57.9 31 56 30.2 54 30.1v4.1c0.8 0.3 1.5 1 1.8 1.8H61v-0.6C61 34.2 60.5 33 59.5 32.3zM54 26h-2c-0.6 0-1 0.4-1 1v1.2C51.7 28.1 52.3 28 53 28c0.7 0 1.3 0.1 2 0.2V27C55 26.4 54.6 26 54 26z" fill="url(#SVGID_1_)"/></svg>
