<?xml version="1.0" encoding="iso-8859-1"?>
<!-- Generator: Adobe Illustrator 22.1.0, SVG Export Plug-In . SVG Version: 6.00 Build 0)  -->
<svg xmlns="http://www.w3.org/2000/svg" xmlns:xlink="http://www.w3.org/1999/xlink" version="1.1" id="Layer_1_1_" x="0px" y="0px" viewBox="0 0 64 64" style="enable-background:new 0 0 64 64;" xml:space="preserve" width="512" height="512">
<linearGradient id="SVGID_1_" gradientUnits="userSpaceOnUse" x1="32" y1="63" x2="32" y2="1">
	<stop offset="0" style="stop-color:#9F2FFF"/>
	<stop offset="1" style="stop-color:#0BB1D3"/>
</linearGradient>
<path style="fill:url(#SVGID_1_);" d="M11,53H9v-2h2V53z M15,51h-2v2h2V51z M19,51h-2v2h2V51z M23,51h-2v2h2V51z M27,51h-2v2h2V51z   M31,51h-2v2h2V51z M11,47H9v2h2V47z M15,47h-2v2h2V47z M19,47h-2v2h2V47z M23,47h-2v2h2V47z M27,47h-2v2h2V47z M31,47h-2v2h2V47z   M31,55h-2v2h2V55z M27,55H9v2h18V55z M7,51H5v2h2V51z M7,47H5v2h2V47z M7,55H5v2h2V55z M52,50h2v-2h-2V50z M52,46h2v-2h-2V46z   M54,22v2c1.654,0,3,1.346,3,3v1.67c1.351,0.461,2.624,1.149,3.748,2.048C62.179,31.863,63,33.57,63,35.403v10.272  c0,3.018-1.924,5.687-4.786,6.64L53,54.054l-5.214-1.738C44.924,51.362,43,48.693,43,45.676V35.403c0-1.833,0.821-3.54,2.252-4.685  l0,0c1.124-0.899,2.397-1.587,3.748-2.048V27c0-1.654,1.346-3,3-3v-2c0-2.206,1.794-4,4-4h3c1.103,0,2-0.897,2-2s-0.897-2-2-2H37v2  h1c1.654,0,3,1.346,3,3v15c0,1.654-1.346,3-3,3H20c-0.552,0-1,0.448-1,1v1h1c1.103,0,2,0.897,2,2v2h10c1.654,0,3,1.346,3,3v12  c0,1.654-1.346,3-3,3h-4.764l-2.944,1.473C23.601,62.817,22.827,63,22.056,63h-8.111c-0.771,0-1.545-0.183-2.235-0.527L8.764,61H4  c-1.654,0-3-1.346-3-3V46c0-1.654,1.346-3,3-3h10v-2c0-1.103,0.897-2,2-2h1v-1c0-1.654,1.346-3,3-3h18c0.552,0,1-0.448,1-1V19  c0-0.551-0.448-1-1-1h-1v4c0,2.757-2.243,5-5,5h-7v4h4v2H9v-2h4v-4H6c-2.757,0-5-2.243-5-5V6c0-2.757,2.243-5,5-5h26  c2.757,0,5,2.243,5,5v6h22c2.206,0,4,1.794,4,4s-1.794,4-4,4h-3C54.897,20,54,20.897,54,22z M32,45H4c-0.552,0-1,0.448-1,1v12  c0,0.552,0.448,1,1,1h5.236l3.366,1.684C13.017,60.891,13.481,61,13.944,61h8.111c0.463,0,0.928-0.109,1.343-0.316L26.764,59H32  c0.552,0,1-0.448,1-1V46C33,45.448,32.552,45,32,45z M20,41h-4v2h4V41z M3,6v13h7.236l4,2H35V6c0-1.654-1.346-3-3-3H6  C4.346,3,3,4.346,3,6z M23,27h-8v4h8V27z M34.816,23H13.764l-4-2H3v1c0,1.654,1.346,3,3,3h26C33.302,25,34.402,24.161,34.816,23z   M45,35.403V36h5.184c0.302-0.847,0.969-1.514,1.816-1.816v-4.131c-2,0.195-3.923,0.966-5.498,2.226  C45.547,33.043,45,34.182,45,35.403z M53,36c-0.552,0-1,0.448-1,1v2c0,0.552,0.448,1,1,1s1-0.448,1-1v-2C54,36.448,53.552,36,53,36z   M61,45.676V38h-5v1c0,1.654-1.346,3-3,3s-3-1.346-3-3v-1h-5v7.676c0,2.155,1.374,4.062,3.419,4.743L53,51.946l4.581-1.527  C59.626,49.737,61,47.831,61,45.676z M59.499,32.28C57.923,31.019,56,30.248,54,30.053v4.131c0.847,0.302,1.514,0.969,1.816,1.816  H61v-0.597C61,34.182,60.453,33.043,59.499,32.28z M54,26h-2c-0.552,0-1,0.449-1,1v1.167C51.659,28.059,52.328,28,53,28  c0.672,0,1.341,0.059,2,0.167V27C55,26.449,54.552,26,54,26z"/>
</svg>
