<?xml version="1.0" encoding="iso-8859-1"?>
<!-- Generator: Adobe Illustrator 22.1.0, SVG Export Plug-In . SVG Version: 6.00 Build 0)  -->
<svg xmlns="http://www.w3.org/2000/svg" xmlns:xlink="http://www.w3.org/1999/xlink" version="1.1" id="Layer_1_1_" x="0px" y="0px" viewBox="0 0 64 64" style="enable-background:new 0 0 64 64;" xml:space="preserve" width="512" height="512">
<linearGradient id="SVGID_1_" gradientUnits="userSpaceOnUse" x1="32" y1="63.0542" x2="32" y2="1">
	<stop offset="0" style="stop-color:#9F2FFF"/>
	<stop offset="1" style="stop-color:#3363ff"/>
</linearGradient>
<path style="fill:url(#SVGID_1_);" d="M13,38h2v2h-2V38z M9,40h2v-2H9V40z M5,40h2v-2H5V40z M54,33c1.654,0,3,1.346,3,3v1.67  c1.351,0.461,2.624,1.149,3.748,2.048C62.179,40.863,63,42.571,63,44.403v5.11c0,6.105-3.892,11.505-9.684,13.436L53,63.054  l-0.316-0.105C46.892,61.018,43,55.619,43,49.513v-5.11c0-1.833,0.821-3.541,2.252-4.685v0c1.124-0.899,2.397-1.587,3.748-2.048V36  c0-1.654,1.346-3,3-3c0-2.206,1.794-4,4-4h3c1.103,0,2-0.897,2-2s-0.897-2-2-2H49c-2.206,0-4-1.794-4-4V11c0-2.206,1.794-4,4-4h7  c1.103,0,2-0.897,2-2s-0.897-2-2-2H33c-1.103,0-2,0.897-2,2v0.101c2.279,0.465,4,2.484,4,4.899v4h3c2.757,0,5,2.243,5,5v20  c0,2.757-2.243,5-5,5H28v4h4v2H12v-2h4v-4H6c-2.757,0-5-2.243-5-5V19c0-2.757,2.243-5,5-5h19v-4c0-2.414,1.721-4.434,4-4.899V5  c0-2.206,1.794-4,4-4h23c2.206,0,4,1.794,4,4s-1.794,4-4,4h-7c-1.103,0-2,0.897-2,2v10c0,1.103,0.897,2,2,2h10c2.206,0,4,1.794,4,4  s-1.794,4-4,4h-3C54.897,31,54,31.897,54,33z M27.868,27L30,30.197L32.132,27H27.868z M33,13h-2v12h2V13z M29,13h-2v12h2V13z M41,39  v-1H17.697l-3-2H3v3c0,1.654,1.346,3,3,3h12v6h8v-4h-6v-2h18C39.654,42,41,40.654,41,39z M35,16v10.303l-5,7.5l-5-7.5V16H6  c-1.654,0-3,1.346-3,3v15h12.303l3,2H41V19c0-1.654-1.346-3-3-3H35z M30,7c-1.654,0-3,1.346-3,3v1h6v-1C33,8.346,31.654,7,30,7z   M45,44.403V45h5c0-1.103,0.897-2,2-2v-3.947c-2,0.195-3.923,0.966-5.499,2.226C45.547,42.043,45,43.182,45,44.403z M54,51h-2  c-1.103,0-2-0.897-2-2v-2h-5v2.513c0,1.032,0.135,2.038,0.381,3.005c0.508,0.176,0.944,0.377,1.369,0.574  C47.805,53.579,48.716,54,50.663,54c1.948,0,2.859-0.421,3.916-0.908C55.687,52.58,56.945,52,59.332,52  c0.495,0,0.951,0.031,1.389,0.081C60.9,51.248,61,50.39,61,49.513V47h-5v2C56,50.103,55.103,51,54,51z M54.001,49L54,45h-2v4H54.001  z M60.129,54.035C59.873,54.017,59.615,54,59.332,54c-1.948,0-2.859,0.421-3.916,0.908C54.307,55.42,53.049,56,50.663,56  c-2.065,0-3.283-0.435-4.292-0.884c1.374,2.648,3.702,4.759,6.629,5.825C56.317,59.734,58.868,57.187,60.129,54.035z M59.499,41.28  C57.923,40.019,56,39.248,54,39.053V43c1.103,0,2,0.897,2,2h5v-0.597C61,43.182,60.453,42.043,59.499,41.28z M54,35h-2  c-0.551,0-1,0.449-1,1v1.167C51.659,37.059,52.328,37,53,37s1.341,0.059,2,0.167V36C55,35.449,54.551,35,54,35z M21,25  c0,0.969-0.46,1.847-1.208,2.399c0.138,0.919-0.157,1.865-0.842,2.55c-0.686,0.685-1.635,0.979-2.55,0.842  C15.847,31.54,14.969,32,14,32s-1.847-0.46-2.399-1.208c-0.917,0.138-1.865-0.157-2.55-0.842c-0.685-0.685-0.98-1.631-0.842-2.55  C7.46,26.847,7,25.969,7,25c0-0.969,0.46-1.847,1.208-2.399C8.07,21.682,8.365,20.735,9.05,20.05s1.632-0.98,2.55-0.842  C12.153,18.46,13.031,18,14,18s1.847,0.46,2.399,1.208c0.922-0.138,1.866,0.157,2.55,0.842c0.686,0.685,0.98,1.631,0.842,2.551  C20.54,23.153,21,24.031,21,25z M19,25c0-0.435-0.284-0.815-0.707-0.946l-1.149-0.357l0.561-1.064  c0.206-0.392,0.138-0.861-0.169-1.168c-0.308-0.307-0.778-0.377-1.169-0.169l-1.064,0.559l-0.356-1.148  C14.815,20.284,14.435,20,14,20s-0.815,0.284-0.946,0.706l-0.356,1.148l-1.064-0.559c-0.392-0.207-0.862-0.138-1.169,0.169  c-0.307,0.308-0.375,0.777-0.169,1.168l0.561,1.064l-1.149,0.357C9.284,24.185,9,24.565,9,25c0,0.435,0.284,0.815,0.706,0.946  l1.148,0.356l-0.559,1.064c-0.206,0.392-0.138,0.861,0.169,1.169c0.308,0.308,0.778,0.375,1.168,0.169l1.064-0.561l0.356,1.149  C13.185,29.716,13.565,30,14,30s0.815-0.284,0.946-0.707l0.356-1.149l1.064,0.561c0.392,0.205,0.861,0.138,1.168-0.169  c0.307-0.308,0.375-0.777,0.169-1.169l-0.559-1.064l1.148-0.356C18.716,25.815,19,25.435,19,25z M17,25c0,1.654-1.346,3-3,3  s-3-1.346-3-3s1.346-3,3-3S17,23.346,17,25z M15,25c0-0.551-0.449-1-1-1s-1,0.449-1,1s0.449,1,1,1S15,25.551,15,25z"/>
</svg>
